<?xml version="1.0" encoding="UTF-8"?>
<svg width="40px" height="40px" viewBox="0 0 40 40" version="1.1" xmlns="http://www.w3.org/2000/svg" xmlns:xlink="http://www.w3.org/1999/xlink">
    <!-- Generator: Sketch 50.2 (55047) - http://www.bohemiancoding.com/sketch -->
    <title>call_btn</title>
    <desc>Created with Sketch.</desc>
    <defs>
        <polygon id="path-1" points="6.45358436e-21 7.09337752e-06 6.45358436e-21 19.6498095 19.6056067 19.6498095 19.6056067 7.09337753e-06 0 7.09337753e-06"></polygon>
    </defs>
    <g id="mockup" stroke="none" stroke-width="1" fill="none" fill-rule="evenodd">
        <g id="LookrWebsite-Mockup-mobile" transform="translate(-190.000000, -6042.000000)">
            <g id="footer" transform="translate(0.000000, 5830.000000)">
                <g id="Group-13" transform="translate(190.000000, 212.000000)">
                    <g id="call_btn">
                        <circle id="Oval-2-Copy" fill="#FFFFFF" opacity="0.300000012" cx="20" cy="20" r="20"></circle>
                        <g id="Page-1" transform="translate(10.000000, 10.000000)">
                            <mask id="mask-2" fill="white">
                                <use xlink:href="#path-1"></use>
                            </mask>
                            <g id="Clip-2"></g>
                            <path d="M4.7917619,1.89885714 C3.98271429,2.33409524 2.49938095,3.27314286 2.04366667,4.69742857 C1.77366667,5.5412381 1.897,6.44457143 2.42080952,7.45885714 C4.22604762,10.9421905 7.92652381,14.7864762 11.6284286,17.0245714 C12.719381,17.6845714 13.7379524,17.8907619 14.6541429,17.6369524 C16.1784286,17.2150476 17.2084286,15.6488571 17.6922381,14.7393333 L14.877,12.5998095 C13.3074762,14.2502857 11.4979524,14.6079048 9.95033333,13.5664762 C8.03080952,12.2798095 6.5617619,10.4226667 6.05319048,9.6207619 C5.08414286,8.106 5.437,6.33552381 7.02414286,4.76790476 L4.7917619,1.89885714 Z M13.8608095,19.6498095 C12.8160476,19.6498095 11.7384286,19.3174286 10.6427143,18.6545714 C6.60414286,16.213619 2.71271429,12.1621905 0.729380952,8.33409524 C-0.0287142857,6.86695238 -0.196809524,5.44838095 0.229380952,4.11695238 C0.895095238,2.03790476 2.84985714,0.774095238 3.95604762,0.206 C4.76319048,-0.207809524 5.75080952,0.0174285714 6.30461905,0.741714286 L8.527,3.64838095 C9.10128571,4.39933333 9.03080952,5.46314286 8.36319048,6.12314286 C7.43319048,7.0412381 7.197,7.87409524 7.65985714,8.59790476 C8.16652381,9.39695238 9.47461905,10.9550476 11.0117619,11.9850476 C11.7503333,12.4817143 12.6027143,12.2388571 13.5465238,11.2631429 C14.2031905,10.5831429 15.2703333,10.5064762 16.029381,11.083619 L18.8589048,13.233619 C19.597,13.7945714 19.8184286,14.7950476 19.3855714,15.6117143 C18.7627143,16.7893333 17.3855714,18.8569524 15.1627143,19.4726667 C14.7350952,19.5907619 14.3008095,19.6498095 13.8608095,19.6498095 Z" id="Fill-1" fill="#FFFFFF" mask="url(#mask-2)"></path>
                        </g>
                    </g>
                </g>
            </g>
        </g>
    </g>
</svg>