<?xml version="1.0" encoding="UTF-8"?>
<svg width="15px" height="15px" viewBox="0 0 15 15" version="1.1" xmlns="http://www.w3.org/2000/svg" xmlns:xlink="http://www.w3.org/1999/xlink">
    <!-- Generator: Sketch 50.2 (55047) - http://www.bohemiancoding.com/sketch -->
    <title>icon-language-dark</title>
    <desc>Created with Sketch.</desc>
    <defs></defs>
    <g id="Page-1" stroke="none" stroke-width="1" fill="none" fill-rule="evenodd" opacity="0.800000012">
        <g id="kabob_隱私條款" transform="translate(-40.000000, -2097.000000)">
            <g id="footer" transform="translate(0.000000, 1983.000000)">
                <g id="語言選單" transform="translate(40.000000, 114.000000)">
                    <g id="icon-language-dark">
                        <polygon id="Clip-2" points="7.41456383 14.8659894 0 14.8659894 0 3.19148934e-05 7.41456383 3.19148934e-05 14.8291277 3.19148934e-05 14.8291277 14.8659894 7.41456383 14.8659894"></polygon>
                        <path d="M11.2284894,10.558117 C11.4343404,9.75226596 11.5613617,8.86503191 11.5945532,7.92545745 L13.8474255,7.92545745 C13.7529574,9.20556383 13.2841277,10.3803511 12.549766,11.3457766 C12.164234,11.0432234 11.7202979,10.7780106 11.2284894,10.558117 L11.2284894,10.558117 Z M10.944766,11.4862021 C11.304766,11.6550319 11.6318936,11.8490745 11.9168936,12.0664149 C11.3526383,12.6163085 10.6900851,13.0653511 9.95604255,13.3809894 C10.3460426,12.8601383 10.6805106,12.2186489 10.944766,11.4862021 L10.944766,11.4862021 Z M3.88455319,11.4865213 C4.14880851,12.2189681 4.4832766,12.8601383 4.8732766,13.3809894 C4.13955319,13.0653511 3.477,12.6166277 2.91274468,12.0670532 C3.19774468,11.8493936 3.52487234,11.6553511 3.88455319,11.4865213 L3.88455319,11.4865213 Z M3.23444681,7.92545745 C3.2676383,8.86535106 3.39529787,9.75258511 3.60082979,10.5587553 C3.10934043,10.7786489 2.66540426,11.0435426 2.27987234,11.3464149 C1.54519149,10.3806702 1.0763617,9.20588298 0.981893617,7.92545745 L3.23444681,7.92545745 Z M3.59508511,4.33024468 C3.39082979,5.13832979 3.26476596,6.02684043 3.23348936,6.96801064 L0.981893617,6.96801064 C1.0763617,5.68790426 1.54487234,4.51343617 2.27923404,3.54801064 C2.66380851,3.84864894 3.10582979,4.11162766 3.59508511,4.33024468 L3.59508511,4.33024468 Z M3.87657447,3.40152128 C3.51976596,3.23460638 3.19519149,3.04215957 2.91210638,2.82705319 C3.46870213,2.28481915 4.12104255,1.84184043 4.84295745,1.52715957 C4.46189362,2.04545745 4.13508511,2.67928723 3.87657447,3.40152128 L3.87657447,3.40152128 Z M10.9501915,3.39481915 C10.692,2.67545745 10.3658298,2.0438617 9.98604255,1.52715957 C10.704766,1.84056383 11.3545532,2.28098936 11.909234,2.82003191 C11.6277447,3.0351383 11.304766,3.22726596 10.9501915,3.39481915 L10.9501915,3.39481915 Z M7.89338298,6.96801064 L7.89338298,5.08152128 C8.74934043,5.04194681 9.57082979,4.89864894 10.3211489,4.66567021 C10.4944468,5.37641489 10.604234,6.15290426 10.6348723,6.96801064 L7.89338298,6.96801064 Z M7.89338298,9.80588298 L7.89338298,7.92545745 L10.6339149,7.92545745 C10.6016809,8.73737234 10.490617,9.51035106 10.3166809,10.2179043 C9.56731915,9.98652128 8.74742553,9.8445 7.89338298,9.80588298 L7.89338298,9.80588298 Z M7.89338298,10.7649255 C8.64880851,10.8038617 9.37934043,10.9334362 10.0428511,11.1392872 C9.54082979,12.5470532 8.76912766,13.551734 7.89338298,13.825883 L7.89338298,10.7649255 Z M6.93593617,10.7649255 L6.93593617,13.825883 C6.06019149,13.551734 5.28848936,12.5473723 4.78614894,11.1396064 C5.44997872,10.9334362 6.17987234,10.8041809 6.93593617,10.7649255 L6.93593617,10.7649255 Z M6.93593617,7.92545745 L6.93593617,9.80588298 C6.08157447,9.8445 5.26168085,9.98652128 4.5126383,10.2182234 C4.33870213,9.51067021 4.22731915,8.73737234 4.19508511,7.92545745 L6.93593617,7.92545745 Z M6.93593617,5.08247872 L6.93593617,6.96801064 L4.19444681,6.96801064 C4.22508511,6.15481915 4.33423404,5.37960638 4.50689362,4.67045745 C5.25785106,4.90184043 6.07997872,5.04418085 6.93593617,5.08247872 L6.93593617,5.08247872 Z M6.93593617,4.12279787 C6.17731915,4.08481915 5.44423404,3.95524468 4.77817021,3.74811702 C5.27987234,2.3288617 6.0557234,1.31588298 6.93593617,1.0401383 L6.93593617,4.12279787 Z M7.89338298,1.0401383 C8.7726383,1.31556383 9.54721277,2.32662766 10.049234,3.74332979 C9.38412766,3.95141489 8.652,4.08226596 7.89338298,4.12184043 L7.89338298,1.0401383 Z M11.5958298,6.96801064 C11.5645532,6.02396809 11.4378511,5.13354255 11.2326383,4.3238617 C11.7202979,4.10428723 12.1607234,3.84035106 12.543383,3.53971277 C13.2818936,4.50641489 13.7526383,5.68439362 13.8474255,6.96801064 L11.5958298,6.96801064 Z M14.8291277,7.44673404 C14.8291277,3.52343617 11.7659362,0.304180851 7.90582979,0.0501382979 C7.74465957,0.0182234043 7.58125532,3.19148934e-05 7.41465957,3.19148934e-05 C7.24806383,3.19148934e-05 7.08434043,0.0182234043 6.92348936,0.0501382979 C3.06338298,0.304180851 -0.000127659574,3.52343617 -0.000127659574,7.44673404 C-0.000127659574,11.4593936 3.20476596,14.7357766 7.18902128,14.8557766 C7.26370213,14.8621596 7.33870213,14.8659894 7.41465957,14.8659894 C7.49029787,14.8659894 7.56561702,14.8621596 7.64029787,14.8557766 C11.6245532,14.7357766 14.8291277,11.4593936 14.8291277,7.44673404 L14.8291277,7.44673404 Z" id="Fill-1" fill="#3B3E49"></path>
                    </g>
                </g>
            </g>
        </g>
    </g>
</svg>