<?xml version="1.0" encoding="UTF-8"?>
<svg width="18px" height="18px" viewBox="0 0 18 18" version="1.1" xmlns="http://www.w3.org/2000/svg" xmlns:xlink="http://www.w3.org/1999/xlink">
    <!-- Generator: Sketch 50.2 (55047) - http://www.bohemiancoding.com/sketch -->
    <title>icon-language</title>
    <desc>Created with Sketch.</desc>
    <defs>
        <polygon id="path-1" points="8.8974766 17.8391872 0 17.8391872 0 3.82978721e-05 8.8974766 3.82978721e-05 17.7949532 3.82978721e-05 17.7949532 17.8391872 8.8974766 17.8391872"></polygon>
    </defs>
    <g id="Page-1" stroke="none" stroke-width="1" fill="none" fill-rule="evenodd" opacity="0.800000012">
        <g id="kabob_pf_web_sidebar" transform="translate(-30.000000, -441.000000)">
            <g id="語言選單" transform="translate(30.000000, 441.000000)">
                <g id="icon-language">
                    <mask id="mask-2" fill="white">
                        <use xlink:href="#path-1"></use>
                    </mask>
                    <g id="Clip-2"></g>
                    <path d="M13.4741872,12.6697404 C13.7212085,11.7027191 13.873634,10.6380383 13.9134638,9.51054894 L16.6169106,9.51054894 C16.5035489,11.0466766 15.9409532,12.4564213 15.0597191,13.6149319 C14.5970809,13.2518681 14.0643574,12.9336128 13.4741872,12.6697404 L13.4741872,12.6697404 Z M13.1337191,13.7834426 C13.5657191,13.9860383 13.9582723,14.2188894 14.3002723,14.4796979 C13.623166,15.1395702 12.8281021,15.6784213 11.9472511,16.0571872 C12.4152511,15.432166 12.8166128,14.6623787 13.1337191,13.7834426 L13.1337191,13.7834426 Z M4.66146383,13.7838255 C4.97857021,14.6627617 5.37993191,15.432166 5.84793191,16.0571872 C4.96746383,15.6784213 4.1724,15.1399532 3.49529362,14.4804638 C3.83729362,14.2192723 4.22984681,13.9864213 4.66146383,13.7838255 L4.66146383,13.7838255 Z M3.88133617,9.51054894 C3.92116596,10.6384213 4.07435745,11.7031021 4.32099574,12.6705064 C3.73120851,12.9343787 3.19848511,13.2522511 2.73584681,13.6156979 C1.85422979,12.4568043 1.29163404,11.0470596 1.17827234,9.51054894 L3.88133617,9.51054894 Z M4.31410213,5.19629362 C4.06899574,6.16599574 3.91771915,7.23220851 3.88018723,8.36161277 L1.17827234,8.36161277 C1.29163404,6.82548511 1.85384681,5.4161234 2.73508085,4.25761277 C3.19657021,4.61837872 3.72699574,4.93395319 4.31410213,5.19629362 L4.31410213,5.19629362 Z M4.65188936,4.08182553 C4.22371915,3.88152766 3.83422979,3.65059149 3.49452766,3.39246383 C4.16244255,2.74178298 4.94525106,2.21020851 5.81154894,1.83259149 C5.35427234,2.45454894 4.96210213,3.21514468 4.65188936,4.08182553 L4.65188936,4.08182553 Z M13.1402298,4.07378298 C12.8304,3.21054894 12.4389957,2.45263404 11.9832511,1.83259149 C12.8457191,2.2086766 13.6254638,2.73718723 14.2910809,3.3840383 C13.9532936,3.64216596 13.5657191,3.87271915 13.1402298,4.07378298 L13.1402298,4.07378298 Z M9.47205957,8.36161277 L9.47205957,6.09782553 C10.4992085,6.05033617 11.4849957,5.87837872 12.3853787,5.59880426 C12.5933362,6.45169787 12.7250809,7.38348511 12.7618468,8.36161277 L9.47205957,8.36161277 Z M9.47205957,11.7670596 L9.47205957,9.51054894 L12.7606979,9.51054894 C12.722017,10.4848468 12.5887404,11.4124213 12.380017,12.2614851 C11.480783,11.9838255 10.4969106,11.8134 9.47205957,11.7670596 L9.47205957,11.7670596 Z M9.47205957,12.9179106 C10.3785702,12.964634 11.2552085,13.1201234 12.0514213,13.3671447 C11.4489957,15.0564638 10.5229532,16.2620809 9.47205957,16.5910596 L9.47205957,12.9179106 Z M8.3231234,12.9179106 L8.3231234,16.5910596 C7.27222979,16.2620809 6.34618723,15.0568468 5.74337872,13.3675277 C6.53997447,13.1201234 7.41584681,12.965017 8.3231234,12.9179106 L8.3231234,12.9179106 Z M8.3231234,9.51054894 L8.3231234,11.7670596 C7.29788936,11.8134 6.31401702,11.9838255 5.41516596,12.2618681 C5.20644255,11.4128043 5.07278298,10.4848468 5.03410213,9.51054894 L8.3231234,9.51054894 Z M8.3231234,6.09897447 L8.3231234,8.36161277 L5.03333617,8.36161277 C5.07010213,7.38578298 5.20108085,6.45552766 5.40827234,5.60454894 C6.30942128,5.88220851 7.29597447,6.05301702 8.3231234,6.09897447 L8.3231234,6.09897447 Z M8.3231234,4.94735745 C7.41278298,4.90178298 6.53308085,4.74629362 5.73380426,4.49774043 C6.33584681,2.79463404 7.26686809,1.57905957 8.3231234,1.24816596 L8.3231234,4.94735745 Z M9.47205957,1.24816596 C10.527166,1.5786766 11.4566553,2.79195319 12.0590809,4.49199574 C11.2609532,4.74169787 10.3824,4.89871915 9.47205957,4.94620851 L9.47205957,1.24816596 Z M13.9149957,8.36161277 C13.8774638,7.2287617 13.7254213,6.16025106 13.479166,5.18863404 C14.0643574,4.92514468 14.5928681,4.60842128 15.0520596,4.24765532 C15.9382723,5.40769787 16.503166,6.82127234 16.6169106,8.36161277 L13.9149957,8.36161277 Z M17.7949532,8.93608085 C17.7949532,4.2281234 14.1191234,0.365017021 9.48699574,0.0601659574 C9.29359149,0.0218680851 9.09750638,3.82978721e-05 8.89759149,3.82978721e-05 C8.6976766,3.82978721e-05 8.50120851,0.0218680851 8.30818723,0.0601659574 C3.67605957,0.365017021 -0.000153191489,4.2281234 -0.000153191489,8.93608085 C-0.000153191489,13.7512723 3.84571915,17.6829319 8.62682553,17.8269319 C8.71644255,17.8345915 8.80644255,17.8391872 8.89759149,17.8391872 C8.98835745,17.8391872 9.07874043,17.8345915 9.16835745,17.8269319 C13.9494638,17.6829319 17.7949532,13.7512723 17.7949532,8.93608085 L17.7949532,8.93608085 Z" id="Fill-1" fill="#FFFFFF" mask="url(#mask-2)"></path>
                </g>
            </g>
        </g>
    </g>
</svg>