<?xml version="1.0" encoding="UTF-8"?>
<svg width="20px" height="15px" viewBox="0 0 20 15" version="1.1" xmlns="http://www.w3.org/2000/svg" xmlns:xlink="http://www.w3.org/1999/xlink">
    <!-- Generator: Sketch 50.2 (55047) - http://www.bohemiancoding.com/sketch -->
    <title>icon-mail</title>
    <desc>Created with Sketch.</desc>
    <defs></defs>
    <g id="Page-1" stroke="none" stroke-width="1" fill="none" fill-rule="evenodd">
        <g id="footer" transform="translate(-1210.000000, -88.000000)" fill="#FFFFFF">
            <g id="section-copy-6">
                <g id="mail_btn" transform="translate(1200.000000, 75.000000)">
                    <path d="M11.8461467,25.4614905 L11.8461467,15.7881431 L19.4402714,21.579967 C19.6055015,21.7059665 19.8030392,21.769197 20.0001154,21.769197 C20.1971915,21.769197 20.3947293,21.7059665 20.5599594,21.579967 L28.1536225,15.7881431 L28.1536225,25.4614905 L11.8461467,25.4614905 Z M26.3448602,14.8461467 L20.0001154,19.6853589 L13.6553706,14.8461467 L26.3448602,14.8461467 Z M29.9974615,13.8981504 C29.9965385,13.8639967 29.9919231,13.829843 29.9873077,13.7961508 C29.9836154,13.7693817 29.9808462,13.742151 29.9748463,13.7163049 C29.9679232,13.6863051 29.9573079,13.6572282 29.9476156,13.6281514 C29.9379233,13.5995362 29.9291541,13.5709209 29.9166926,13.5436902 C29.9051542,13.5187672 29.890385,13.4947673 29.8765389,13.4703059 C29.8603852,13.4412291 29.8442314,13.4126138 29.8243853,13.3853831 C29.8193084,13.3779985 29.8165392,13.3701524 29.8110007,13.3632294 C29.7990008,13.3475371 29.7842316,13.3359987 29.7713086,13.3212295 C29.7500779,13.2967681 29.7288472,13.2723066 29.7053088,13.2501529 C29.6826935,13.2293837 29.6596167,13.2113838 29.6356168,13.1929223 C29.61254,13.1749224 29.5890016,13.1578455 29.5640786,13.1421533 C29.537771,13.125538 29.5110019,13.1116919 29.4833097,13.0983073 C29.4574636,13.0853843 29.4316176,13.0729228 29.4039254,13.062769 C29.3748486,13.0512306 29.3453102,13.0429229 29.3148488,13.0350768 C29.2880797,13.0276922 29.260849,13.0203076 29.2326953,13.0156922 C29.1985415,13.0096923 29.1643878,13.0073846 29.1297726,13.0055384 C29.1117726,13.0041538 29.0951573,13 29.0766959,13 L10.9230734,13 C10.9050734,13 10.8884581,13.0041538 10.8704582,13.0055384 C10.8358429,13.0073846 10.8007662,13.0096923 10.7666124,13.0156922 C10.7389202,13.0203076 10.7126126,13.0276922 10.6863051,13.0346153 C10.6553821,13.0429229 10.6249207,13.0516921 10.5944593,13.0632305 C10.5681517,13.0729228 10.5432287,13.0849228 10.5183057,13.0973842 C10.4896904,13.1112303 10.4615367,13.125538 10.4347676,13.1426148 C10.4107677,13.1578455 10.3881524,13.1744609 10.3655371,13.1919993 C10.3410756,13.2109223 10.3170757,13.2293837 10.2944604,13.2506144 C10.270922,13.2723066 10.2501529,13.2963066 10.2289222,13.320768 C10.2159992,13.3355372 10.20123,13.3475371 10.18923,13.3632294 C10.1836916,13.3701524 10.1804608,13.3779985 10.1753839,13.3853831 C10.1559994,13.4126138 10.1398456,13.4412291 10.1232303,13.4703059 C10.1093842,13.4947673 10.0950766,13.5187672 10.0835381,13.5436902 C10.0710766,13.5709209 10.0623075,13.5995362 10.0526152,13.6281514 C10.0424614,13.6572282 10.031846,13.6863051 10.0253845,13.7163049 C10.0193845,13.742151 10.0166153,13.7693817 10.012923,13.7961508 C10.0083077,13.829843 10.0032308,13.8639967 10.0023077,13.8981504 C10.0023077,13.9064581 10,13.9143042 10,13.9230734 L10,26.3845639 C10,26.8941004 10.4135369,27.3076373 10.9230734,27.3076373 L29.0766959,27.3076373 C29.5866939,27.3076373 29.9997692,26.8941004 29.9997692,26.3845639 L29.9997692,13.9230734 C29.9997692,13.9143042 29.9979231,13.9064581 29.9974615,13.8981504 Z" id="icon-mail"></path>
                </g>
            </g>
        </g>
    </g>
</svg>