<?xml version="1.0" encoding="UTF-8"?>
<svg width="20px" height="21px" viewBox="0 0 20 21" version="1.1" xmlns="http://www.w3.org/2000/svg" xmlns:xlink="http://www.w3.org/1999/xlink">
    <!-- Generator: Sketch 50.2 (55047) - http://www.bohemiancoding.com/sketch -->
    <title>icon-download-circle-voicer</title>
    <desc>Created with Sketch.</desc>
    <defs></defs>
    <g id="Page-1" stroke="none" stroke-width="1" fill="none" fill-rule="evenodd">
        <g id="icon-download-circle-voicer" fill="#F9AE0F">
            <path d="M9.79536364,18.3374091 C5.33581818,18.3374091 1.70809091,14.7096818 1.70809091,10.2501364 C1.70809091,5.79059091 5.33581818,2.16286364 9.79536364,2.16286364 C14.2549091,2.16286364 17.8826364,5.79059091 17.8826364,10.2501364 C17.8826364,14.7096818 14.2549091,18.3374091 9.79536364,18.3374091 M9.79536364,0.454681818 C4.394,0.454681818 -9.09090909e-05,4.84877273 -9.09090909e-05,10.2501364 C-9.09090909e-05,15.6515 4.394,20.0455909 9.79536364,20.0455909 C15.1967273,20.0455909 19.5908182,15.6515 19.5908182,10.2501364 C19.5908182,4.84877273 15.1967273,0.454681818 9.79536364,0.454681818" id="Fill-3"></path>
            <path d="M13.4390455,9.646 L10.5354091,12.5496364 L10.5354091,5.88827273 C10.5354091,5.41645455 10.1531364,5.03418182 9.68131818,5.03418182 C9.20995455,5.03418182 8.82722727,5.41645455 8.82722727,5.88827273 L8.82722727,12.5496364 L5.92404545,9.646 C5.58995455,9.31327273 5.0495,9.31281818 4.71631818,9.64645455 C4.38268182,9.97963636 4.38268182,10.5205455 4.71631818,10.8541818 L9.07768182,15.2155455 C9.08404545,15.2223636 9.09222727,15.2264545 9.09859091,15.2328182 C9.13268182,15.2646364 9.16813636,15.2955455 9.20722727,15.3214545 C9.2295,15.3364545 9.25359091,15.3464545 9.27677273,15.3587273 C9.30268182,15.3732727 9.32768182,15.3887273 9.35495455,15.4000909 C9.38268182,15.4119091 9.41222727,15.4182727 9.44131818,15.4269091 C9.46540909,15.4337273 9.48904545,15.4437273 9.5145,15.4487273 C9.5695,15.4596364 9.62540909,15.4655455 9.68131818,15.4655455 C9.73722727,15.4655455 9.79359091,15.4596364 9.84859091,15.4487273 C9.87404545,15.4437273 9.89722727,15.4337273 9.92177273,15.4269091 C9.95086364,15.4182727 9.98040909,15.4119091 10.0081364,15.4000909 C10.0354091,15.3887273 10.0604091,15.3732727 10.0863182,15.3587273 C10.1095,15.3464545 10.1335909,15.3364545 10.1554091,15.3214545 C10.1945,15.2955455 10.2299545,15.2646364 10.2645,15.2328182 C10.2708636,15.2264545 10.2790455,15.2223636 10.2854091,15.2155455 L14.6467727,10.8541818 C14.9804091,10.5205455 14.9804091,9.97963636 14.6467727,9.64645455 C14.3135909,9.31281818 13.7722273,9.31327273 13.4390455,9.646" id="Fill-1"></path>
        </g>
    </g>
</svg>