<?xml version="1.0" encoding="UTF-8"?>
<svg width="70px" height="21px" viewBox="0 0 70 21" version="1.1" xmlns="http://www.w3.org/2000/svg" xmlns:xlink="http://www.w3.org/1999/xlink">
    <!-- Generator: Sketch 50.2 (55047) - http://www.bohemiancoding.com/sketch -->
    <title>kabob_logo_dark</title>
    <desc>Created with Sketch.</desc>
    <defs></defs>
    <g id="Page-1" stroke="none" stroke-width="1" fill="none" fill-rule="evenodd">
        <g id="kabob_隱私條款" transform="translate(-30.000000, -22.000000)" fill="#3B3E49">
            <g id="header">
                <g id="kabob_logo_dark" transform="translate(30.000000, 22.000000)">
                    <g id="k">
                        <path d="M1.33553636,0 L-0.000190909091,0 L-0.000190909091,1.33572727 L-0.000190909091,19.2270909 C-0.000190909091,19.9646364 0.597990909,20.5621818 1.33553636,20.5621818 L2.67062727,20.5621818 L2.67062727,19.2270909 L2.67062727,1.33572727 C2.67062727,0.597545455 2.07308182,0 1.33553636,0" id="Fill-1"></path>
                        <path d="M11.1842182,5.79504545 C10.6248545,5.31522727 9.78230909,5.37822727 9.30121818,5.93822727 L3.96276364,12.1504091 C3.53321818,12.6505909 3.53321818,13.3900455 3.96276364,13.8902273 L9.30121818,20.1024091 C9.56530909,20.4104091 9.93885455,20.5682273 10.3143091,20.5682273 C10.6223091,20.5682273 10.9322182,20.4619545 11.1842182,20.2449545 C11.7435818,19.7645 11.8072182,18.9213182 11.3267636,18.3625909 L6.73603636,13.0203182 L11.3267636,7.67804545 C11.8072182,7.11868182 11.7435818,6.27613636 11.1842182,5.79504545" id="Fill-4"></path>
                    </g>
                    <path d="M19.7440727,17.8970909 C17.8858909,17.8970909 16.3745273,16.3857273 16.3745273,14.5275455 L16.3745273,11.5067273 C16.3745273,9.64854545 17.8858909,8.13718182 19.7440727,8.13718182 C21.6009818,8.13718182 23.1136182,9.64854545 23.1136182,11.5067273 L23.1136182,13.0168182 L23.1136182,14.5275455 C23.1136182,16.3857273 21.6009818,17.8970909 19.7440727,17.8970909 M19.7440727,5.467 C16.4139818,5.467 13.7043455,8.17663636 13.7043455,11.5067273 L13.7043455,14.5275455 C13.7043455,17.8576364 16.4139818,20.5679091 19.7440727,20.5679091 C21.2783455,20.5679091 22.3569818,19.7909091 23.1136182,18.7854545 L23.1136182,19.2270909 C23.1136182,19.9646364 23.7105273,20.5615455 24.4487091,20.5615455 L25.7831636,20.5615455 L25.7831636,19.2270909 L25.7831636,14.5275455 L25.7831636,13.0168182 L25.7831636,11.5067273 C25.7831636,8.17663636 23.0735273,5.467 19.7440727,5.467" id="Fill-7"></path>
                    <path d="M37.8785909,14.5276091 C37.8785909,16.3857909 36.3665909,17.8971545 34.5090455,17.8971545 C32.6515,17.8971545 31.1395,16.3857909 31.1395,14.5276091 L31.1395,13.9370636 L31.1395,11.5067909 C31.1395,9.64860909 32.6515,8.13724545 34.5090455,8.13724545 C36.3665909,8.13724545 37.8785909,9.64860909 37.8785909,11.5067909 L37.8785909,14.5276091 Z M34.5090455,5.46706364 C33.2624091,5.46706364 32.1029545,5.84697273 31.1395,6.4967 L31.1395,1.33579091 C31.1395,0.597609091 30.5425909,6.36363636e-05 29.8044091,6.36363636e-05 L28.4693182,6.36363636e-05 L28.4693182,1.33579091 L28.4693182,11.5067909 L28.4693182,13.9370636 L28.4693182,14.5276091 C28.4693182,17.8577 31.1795909,20.5679727 34.5090455,20.5679727 C37.8391364,20.5679727 40.5487727,17.8577 40.5487727,14.5276091 L40.5487727,11.5067909 C40.5487727,8.1767 37.8391364,5.46706364 34.5090455,5.46706364 Z" id="Fill-11"></path>
                    <path d="M52.2880909,14.5276091 C52.2880909,16.3857909 50.7767273,17.8971545 48.9191818,17.8971545 C47.061,17.8971545 45.5496364,16.3857909 45.5496364,14.5276091 L45.5496364,11.5067909 C45.5496364,9.64860909 47.061,8.13724545 48.9191818,8.13724545 C50.7767273,8.13724545 52.2880909,9.64860909 52.2880909,11.5067909 L52.2880909,14.5276091 Z M48.9191818,5.46706364 C45.5890909,5.46706364 42.8794545,8.1767 42.8794545,11.5067909 L42.8794545,14.5276091 C42.8794545,17.8577 45.5890909,20.5679727 48.9191818,20.5679727 C52.2492727,20.5679727 54.9589091,17.8577 54.9589091,14.5276091 L54.9589091,11.5067909 C54.9589091,8.1767 52.2492727,5.46706364 48.9191818,5.46706364 Z" id="Fill-9"></path>
                    <path d="M66.8766,14.5276091 C66.8766,16.3857909 65.3646,17.8971545 63.5070545,17.8971545 C61.6488727,17.8971545 60.1375091,16.3857909 60.1375091,14.5276091 L60.1375091,13.9370636 L60.1375091,11.5067909 C60.1375091,9.64860909 61.6488727,8.13724545 63.5070545,8.13724545 C65.3646,8.13724545 66.8766,9.64860909 66.8766,11.5067909 L66.8766,14.5276091 Z M63.5070545,5.46706364 C62.2604182,5.46706364 61.1009636,5.84633636 60.1375091,6.4967 L60.1375091,1.33579091 C60.1375091,0.597609091 59.5399636,6.36363636e-05 58.8024182,6.36363636e-05 L57.4673273,6.36363636e-05 L57.4673273,1.33579091 L57.4673273,11.5067909 L57.4673273,13.9370636 L57.4673273,14.5276091 C57.4673273,17.8577 60.1769636,20.5679727 63.5070545,20.5679727 C66.8371455,20.5679727 69.5467818,17.8577 69.5467818,14.5276091 L69.5467818,11.5067909 C69.5467818,8.1767 66.8371455,5.46706364 63.5070545,5.46706364 Z" id="Fill-14"></path>
                </g>
            </g>
        </g>
    </g>
</svg>