<?xml version="1.0" encoding="UTF-8"?>
<svg width="100px" height="25px" viewBox="0 0 100 25" version="1.1" xmlns="http://www.w3.org/2000/svg" xmlns:xlink="http://www.w3.org/1999/xlink">
    <!-- Generator: Sketch 50.2 (55047) - http://www.bohemiancoding.com/sketch -->
    <title>lookr_logo</title>
    <desc>Created with Sketch.</desc>
    <defs></defs>
    <g id="Page-1" stroke="none" stroke-width="1" fill="none" fill-rule="evenodd">
        <g id="LookrWebsite-Mockup" transform="translate(-31.000000, -17.000000)">
            <g id="header">
                <g id="lookr_logo" transform="translate(31.000000, 17.000000)">
                    <path d="M32.2094532,12.3057115 C32.2094532,10.2961786 32.1360008,8.26338567 31.9909325,6.26609475 C31.9872599,6.23365331 31.9829752,6.20121187 31.9780784,6.16815833 C31.701408,3.19946051 29.3607275,0.881427805 26.4201864,0.644544083 C23.0113867,0.216684335 19.5401527,0 16.1044205,0 C12.6582826,0 9.18643646,0.216684335 5.82782926,0.638423056 C2.6638707,0.887548832 0.186691306,3.56917051 0.186691306,6.74414692 L0.186691306,6.7869941 C0.0624344695,8.63799249 0,10.4944998 0,12.3057115 C0,14.3250381 0.075288625,16.3737457 0.222805362,18.3955207 C0.225253772,18.4316348 0.230762696,18.4653004 0.237495825,18.4995782 C0.53742612,21.4217562 2.86096775,23.7159169 5.75988587,23.9656548 C9.16990969,24.3947387 12.6503253,24.6120352 16.1044205,24.6120352 C19.5199533,24.6120352 22.9716001,24.3971871 26.3669334,23.9748363 C29.5412977,23.7336679 32.0227618,21.056943 32.0227618,17.8685003 L32.0227618,17.8360589 C32.1470187,15.9771032 32.2094532,14.1169232 32.2094532,12.3057115" id="Fill-160" fill="#09A8BE"></path>
                    <path d="M20.9094263,16.1839327 C18.7707396,16.1839327 17.0311439,14.4443369 17.0311439,12.3056503 C17.0311439,10.1681879 18.7707396,8.42859218 20.9094263,8.42859218 C23.0481129,8.42859218 24.7864844,10.1681879 24.7864844,12.3056503 C24.7864844,14.4443369 23.0481129,16.1839327 20.9094263,16.1839327 M11.3018632,16.1839327 C9.16256446,16.1839327 7.42358085,14.4443369 7.42358085,12.3056503 C7.42358085,10.1681879 9.16256446,8.42859218 11.3018632,8.42859218 C13.4399377,8.42859218 15.1783092,10.1681879 15.1783092,12.3056503 C15.1783092,14.4443369 13.4399377,16.1839327 11.3018632,16.1839327 M20.9094263,6.57575748 C18.8974449,6.57575748 17.127244,7.61939248 16.1044205,9.19249628 C15.081597,7.61939248 13.3132325,6.57575748 11.3018632,6.57575748 C8.14096515,6.57575748 5.57013405,9.14597648 5.57013405,12.3056503 C5.57013405,15.4653242 8.14096515,18.0355432 11.3018632,18.0355432 C13.3132325,18.0355432 15.081597,16.9919081 16.1044205,15.4188044 C17.127244,16.9919081 18.8974449,18.0355432 20.9094263,18.0355432 C24.0691001,18.0355432 26.638707,15.4653242 26.638707,12.3056503 C26.638707,9.14597648 24.0691001,6.57575748 20.9094263,6.57575748" id="Fill-162" fill="#FFFFFF"></path>
                    <path d="M45.0223529,2.67109351 L43.734489,2.67109351 L43.734489,3.95773327 L43.734489,21.2073978 C43.734489,21.9186611 44.3117018,22.4952618 45.0223529,22.4952618 L46.3096048,22.4952618 L46.3096048,21.2073978 L46.3096048,3.95773327 C46.3096048,3.24585789 45.7336162,2.67109351 45.0223529,2.67109351" id="Fill-164" fill="#FFFFFF"></path>
                    <path d="M79.7974343,2.67109351 L78.5095704,2.67109351 L78.5095704,3.95773327 L78.5095704,21.2073978 C78.5095704,21.9186611 79.086171,22.4952618 79.7974343,22.4952618 L81.0840741,22.4952618 L81.0840741,21.2073978 L81.0840741,3.95773327 C81.0840741,3.24585789 80.5086976,2.67109351 79.7974343,2.67109351" id="Fill-166" fill="#FFFFFF"></path>
                    <path d="M89.2921869,8.25769312 C88.7535365,7.79371932 87.9412763,7.85492958 87.4773025,8.39541621 L82.3307435,14.3848406 C81.91635,14.8665654 81.91635,15.5790528 82.3307435,16.0620018 L87.4773025,22.0514262 C87.7325493,22.348296 88.0918536,22.5000974 88.4542184,22.5000974 C88.7510881,22.5000974 89.0491821,22.3984884 89.2921869,22.1891493 C89.8320614,21.7263997 89.8932717,20.9135274 89.4305221,20.3742649 L85.0037958,15.2240333 L89.4305221,10.0725775 C89.8932717,9.53453923 89.8320614,8.72166692 89.2921869,8.25769312" id="Fill-168" fill="#FFFFFF"></path>
                    <path d="M98.1605136,7.942093 C94.9494231,7.942093 92.336969,10.5533229 92.336969,13.7644133 L92.336969,21.2137025 C92.336969,21.9237416 92.9141818,22.4997301 93.624833,22.4997301 L94.9114728,22.4997301 L94.9114728,21.2137025 L94.9114728,13.7644133 C94.9114728,11.973401 96.3695013,10.5159846 98.1605136,10.5159846 C98.8711648,10.5159846 99.4477654,9.93999602 99.4477654,9.22873275 C99.4477654,8.51685738 98.8711648,7.942093 98.1605136,7.942093" id="Fill-170" fill="#FFFFFF"></path>
                    <path d="M68.4603752,19.9222883 C65.8693447,19.9222883 63.7588148,17.8135947 63.7588148,15.22134 C63.7588148,12.627249 65.8693447,10.5185554 68.4603752,10.5185554 C71.0538541,10.5185554 73.1631598,12.627249 73.1631598,15.22134 C73.1631598,17.8135947 71.0538541,19.9222883 68.4603752,19.9222883 M56.4821386,19.9222883 C53.8892718,19.9222883 51.7799661,17.8135947 51.7799661,15.22134 C51.7799661,12.627249 53.8892718,10.5185554 56.4821386,10.5185554 C59.0743933,10.5185554 61.1843111,12.627249 61.1843111,15.22134 C61.1843111,17.8135947 59.0743933,19.9222883 56.4821386,19.9222883 M68.4603752,7.94466383 C65.9789111,7.94466383 63.7851352,9.19518953 62.471563,11.0982166 C61.1573786,9.19518953 58.9648269,7.94466383 56.4821386,7.94466383 C52.4698058,7.94466383 49.2060745,11.2083951 49.2060745,15.22134 C49.2060745,19.2336729 52.4698058,22.4974042 56.4821386,22.4974042 C58.9648269,22.4974042 61.1573786,21.2468785 62.471563,19.3438513 C63.7851352,21.2468785 65.9789111,22.4974042 68.4603752,22.4974042 C72.4733201,22.4974042 75.7376635,19.2336729 75.7376635,15.22134 C75.7376635,11.2083951 72.4733201,7.94466383 68.4603752,7.94466383" id="Fill-172" fill="#FFFFFF"></path>
                </g>
            </g>
        </g>
    </g>
</svg>