<?xml version="1.0" encoding="UTF-8"?>
<svg width="12px" height="12px" viewBox="0 0 12 12" version="1.1" xmlns="http://www.w3.org/2000/svg" xmlns:xlink="http://www.w3.org/1999/xlink">
    <!-- Generator: Sketch 50.2 (55047) - http://www.bohemiancoding.com/sketch -->
    <title>products_icon</title>
    <desc>Created with Sketch.</desc>
    <defs></defs>
    <g id="mockup" stroke="none" stroke-width="1" fill="none" fill-rule="evenodd">
        <g id="VoicerWebsite/mockup" transform="translate(-149.000000, -27.000000)" fill="#FFFFFF">
            <g id="section-intro" transform="translate(0.000000, -430.000000)">
                <g id="products_icon" transform="translate(149.000000, 457.000000)">
                    <path d="M3.75604,0 L1.20004,0 C0.53844,0 4e-05,0.5384 4e-05,1.2 L4e-05,3.756 C4e-05,4.4176 0.53844,4.956 1.20004,4.956 L3.75604,4.956 C4.41764,4.956 4.95604,4.4176 4.95604,3.756 L4.95604,1.2 C4.95604,0.5384 4.41764,0 3.75604,0" id="Fill-1"></path>
                    <path d="M10.73768,0 L8.18168,0 C7.52008,0 6.98168,0.5384 6.98168,1.2 L6.98168,3.756 C6.98168,4.4176 7.52008,4.956 8.18168,4.956 L10.73768,4.956 C11.39928,4.956 11.93768,4.4176 11.93768,3.756 L11.93768,1.2 C11.93768,0.5384 11.39928,0 10.73768,0" id="Fill-4"></path>
                    <path d="M3.75604,6.9252 L1.20004,6.9252 C0.53844,6.9252 4e-05,7.4636 4e-05,8.1252 L4e-05,10.6812 C4e-05,11.3428 0.53844,11.8812 1.20004,11.8812 L3.75604,11.8812 C4.41764,11.8812 4.95604,11.3428 4.95604,10.6812 L4.95604,8.1252 C4.95604,7.4636 4.41764,6.9252 3.75604,6.9252" id="Fill-7"></path>
                    <path d="M10.73768,6.9252 L8.18168,6.9252 C7.52008,6.9252 6.98168,7.4636 6.98168,8.1252 L6.98168,10.6812 C6.98168,11.3428 7.52008,11.8812 8.18168,11.8812 L10.73768,11.8812 C11.39928,11.8812 11.93768,11.3428 11.93768,10.6812 L11.93768,8.1252 C11.93768,7.4636 11.39928,6.9252 10.73768,6.9252" id="Fill-9"></path>
                </g>
            </g>
        </g>
    </g>
</svg>