<?xml version="1.0" encoding="UTF-8"?>
<svg width="100px" height="100px" viewBox="0 0 100 100" version="1.1" xmlns="http://www.w3.org/2000/svg" xmlns:xlink="http://www.w3.org/1999/xlink">
    <!-- Generator: Sketch 50.2 (55047) - http://www.bohemiancoding.com/sketch -->
    <title>teachor_icon-circle</title>
    <desc>Created with Sketch.</desc>
    <defs>
        <rect id="path-1" x="0" y="0" width="100" height="100" rx="50"></rect>
        <polygon id="path-3" points="0 0.175 18.7085647 0.175 18.7085647 14.5422283 0 14.5422283"></polygon>
        <polygon id="path-5" points="0.472554348 0.22118536 32.4160326 0.22118536 32.4160326 40.7608696 0.472554348 40.7608696"></polygon>
    </defs>
    <g id="Page-1" stroke="none" stroke-width="1" fill="none" fill-rule="evenodd">
        <g id="teachor_icon-circle">
            <mask id="mask-2" fill="white">
                <use xlink:href="#path-1"></use>
            </mask>
            <use id="Mask" fill="#0F2596" xlink:href="#path-1"></use>
            <g id="Group-9" mask="url(#mask-2)">
                <g transform="translate(25.000000, 26.000000)">
                    <g id="Group-3" stroke-width="1" fill="none" transform="translate(0.000000, 0.368533)">
                        <mask id="mask-4" fill="white">
                            <use xlink:href="#path-3"></use>
                        </mask>
                        <g id="Clip-2"></g>
                        <path d="M2.99282609,14.5422283 C2.02108696,14.5422283 1.06836957,14.0694022 0.493369565,13.1971196 C-0.415326087,11.8183152 -0.0338043478,9.96451087 1.345,9.05581522 L14.0738043,0.668858696 C15.4531522,-0.240923913 17.3069565,0.141684783 18.2145652,1.52048913 C19.1238043,2.89929348 18.7422826,4.75309783 17.3629348,5.66125 L4.63467391,14.0482065 C4.12815217,14.3824457 3.55695652,14.5422283 2.99282609,14.5422283" id="Fill-1" fill="#FFFFFF" mask="url(#mask-4)"></path>
                    </g>
                    <path d="M9.82347826,41.225163 C8.1723913,41.225163 6.83380435,39.8865761 6.83380435,38.2354891 L6.83380435,20.8860326 C6.83380435,19.8833152 7.33597826,18.9479891 8.17184783,18.3936413 L34.1359783,1.18277174 C35.5120652,0.271358696 37.3675,0.646358696 38.2794565,2.02298913 C39.1919565,3.39907609 38.8158696,5.25396739 37.4392391,6.16701087 L12.8131522,22.4909239 L12.8131522,38.2354891 C12.8131522,39.8865761 11.4745652,41.225163 9.82347826,41.225163" id="Fill-4" fill="#FFFFFF"></path>
                    <g id="Group-8" stroke-width="1" fill="none" transform="translate(17.391304, 6.346793)">
                        <mask id="mask-6" fill="white">
                            <use xlink:href="#path-5"></use>
                        </mask>
                        <g id="Clip-7"></g>
                        <path d="M29.4263587,20.8588587 L29.4350543,20.8588587 L29.4263587,20.8588587 Z M6.45190217,22.02625 L6.45190217,32.2561413 L26.4372283,19.23875 L26.4372283,8.77896739 L6.45190217,22.02625 Z M3.46222826,40.7610326 C2.97309783,40.7610326 2.48288043,40.6409239 2.03722826,40.3996196 C1.07309783,39.8767935 0.472554348,38.8680978 0.472554348,37.7713587 L0.472554348,20.4213587 C0.472554348,19.4197283 0.974728261,18.4833152 1.81059783,17.9295109 L27.7752717,0.718641304 C28.692663,0.111032609 29.8709239,0.0555978261 30.8410326,0.576793478 C31.8111413,1.09744565 32.4160326,2.10940217 32.4160326,3.21103261 L32.4160326,20.8588587 C32.4160326,21.8697283 31.9057065,22.8121196 31.0584239,23.3632065 L5.09429348,40.27625 C4.59918478,40.5979891 4.03125,40.7610326 3.46222826,40.7610326 Z" id="Fill-6" fill="#FFFFFF" mask="url(#mask-6)"></path>
                    </g>
                </g>
            </g>
        </g>
    </g>
</svg>