<?xml version="1.0" encoding="UTF-8"?>
<svg width="20px" height="19px" viewBox="0 0 20 19" version="1.1" xmlns="http://www.w3.org/2000/svg" xmlns:xlink="http://www.w3.org/1999/xlink">
    <!-- Generator: Sketch 50.2 (55047) - http://www.bohemiancoding.com/sketch -->
    <title>teachor_logo</title>
    <desc>Created with Sketch.</desc>
    <defs></defs>
    <g id="web" stroke="none" stroke-width="1" fill="none" fill-rule="evenodd">
        <g id="teachor_mockup_detailed" transform="translate(-31.000000, -23.000000)" fill="#294AF6">
            <g id="section01">
                <g id="header">
                    <g id="logo-set" transform="translate(31.000000, 16.000000)">
                        <g id="teachor_logo" transform="translate(0.000000, 7.000000)">
                            <path d="M1.18776271,5.70172881 C0.802,5.70172881 0.424033898,5.5139322 0.195898305,5.16783051 C-0.164779661,4.62071186 -0.0132542373,3.88511864 0.533864407,3.52444068 L5.58505085,0.195966102 C6.13250847,-0.165050847 6.86844068,-0.0131864407 7.22844068,0.533932203 C7.58911864,1.08105085 7.4379322,1.81698305 6.89081356,2.17732203 L1.83928814,5.50579661 C1.63827119,5.63833898 1.41183051,5.70172881 1.18776271,5.70172881" id="Fill-1"></path>
                            <path d="M3.89847458,16.144678 C3.24322034,16.144678 2.7120339,15.6134915 2.7120339,14.9582373 L2.7120339,8.07281356 C2.7120339,7.67518644 2.91135593,7.30366102 3.24288136,7.084 L13.5469492,0.253830508 C14.0930508,-0.107864407 14.829322,0.0409491525 15.1913559,0.587050847 C15.5533898,1.13315254 15.4042373,1.86942373 14.8581356,2.23179661 L5.08491525,8.70976271 L5.08491525,14.9582373 C5.08491525,15.6134915 4.55372881,16.144678 3.89847458,16.144678" id="Fill-4"></path>
                            <path d="M18.5798305,10.5809153 L18.5832203,10.5809153 L18.5798305,10.5809153 Z M9.46220339,11.0443051 L9.46220339,15.1039661 L17.3933898,9.93786441 L17.3933898,5.78701695 L9.46220339,11.0443051 Z M8.27576271,18.4792203 C8.08152542,18.4792203 7.88728814,18.4317627 7.71033898,18.3358305 C7.32762712,18.1283729 7.08932203,17.7280339 7.08932203,17.2927797 L7.08932203,10.4073559 C7.08932203,10.0097288 7.28864407,9.63820339 7.62016949,9.41854237 L17.9242373,2.58837288 C18.2886441,2.34701695 18.7564407,2.32532203 19.1411864,2.53210169 C19.5262712,2.73854237 19.7662712,3.14023729 19.7662712,3.57718644 L19.7662712,10.5809153 C19.7662712,10.9822712 19.5635593,11.3561695 19.2272881,11.5751525 L8.92322034,18.286678 C8.72728814,18.4144746 8.50186441,18.4792203 8.27576271,18.4792203 Z" id="Fill-6"></path>
                        </g>
                    </g>
                </g>
            </g>
        </g>
    </g>
</svg>