<?xml version="1.0" encoding="UTF-8"?>
<svg width="23px" height="20px" viewBox="0 0 23 20" version="1.1" xmlns="http://www.w3.org/2000/svg" xmlns:xlink="http://www.w3.org/1999/xlink">
    <!-- Generator: Sketch 50.2 (55047) - http://www.bohemiancoding.com/sketch -->
    <title>voicer_logo</title>
    <desc>Created with Sketch.</desc>
    <defs></defs>
    <g id="Page-1" stroke="none" stroke-width="1" fill="none" fill-rule="evenodd">
        <g id="VoicerWebsite/mockup" transform="translate(-30.000000, -22.000000)" fill="#F9AE0F" fill-rule="nonzero">
            <g id="section-intro">
                <g id="voicer_logo" transform="translate(30.000000, 22.000000)">
                    <path d="M9.72610257,2.55494506 C9.72610257,3.96584249 8.58205493,5.10989011 7.17115751,5.10989011 C5.76026007,5.10989011 4.61621246,3.96584249 4.61621246,2.55494506 C4.61621246,1.14404762 5.76026007,0 7.17115751,0 C8.58205493,0 9.72610257,1.14404762 9.72610257,2.55494506" id="Fill-1"></path>
                    <path d="M18.2425861,2.55494506 C18.2425861,3.96584249 17.0985384,5.10989011 15.687641,5.10989011 C14.2767436,5.10989011 13.132696,3.96584249 13.132696,2.55494506 C13.132696,1.14404762 14.2767436,0 15.687641,0 C17.0985384,0 18.2425861,1.14404762 18.2425861,2.55494506" id="Fill-3"></path>
                    <path d="M9.72610257,17.3168498 C9.72610257,18.7277473 8.58205493,19.8717949 7.17115751,19.8717949 C5.76026007,19.8717949 4.61621246,18.7277473 4.61621246,17.3168498 C4.61621246,15.9059524 5.76026007,14.7619048 7.17115751,14.7619048 C8.58205493,14.7619048 9.72610257,15.9059524 9.72610257,17.3168498" id="Fill-5"></path>
                    <path d="M18.2425861,17.3168498 C18.2425861,18.7277473 17.0985384,19.8717949 15.687641,19.8717949 C14.2767436,19.8717949 13.132696,18.7277473 13.132696,17.3168498 C13.132696,15.9059524 14.2767436,14.7619048 15.687641,14.7619048 C17.0985384,14.7619048 18.2425861,15.9059524 18.2425861,17.3168498" id="Fill-7"></path>
                    <path d="M5.46786081,9.93589743 C5.46786081,11.3467949 4.32381319,12.4908425 2.91291575,12.4908425 C1.50201831,12.4908425 0.357970696,11.3467949 0.357970696,9.93589743 C0.357970696,8.525 1.50201831,7.38095236 2.91291575,7.38095236 C4.32381319,7.38095236 5.46786081,8.525 5.46786081,9.93589743" id="Fill-9"></path>
                    <path d="M13.9843444,9.93589743 C13.9843444,11.3467949 12.8402967,12.4908425 11.4293993,12.4908425 C10.0185019,12.4908425 8.87445421,11.3467949 8.87445421,9.93589743 C8.87445421,8.525 10.0185019,7.38095236 11.4293993,7.38095236 C12.8402967,7.38095236 13.9843444,8.525 13.9843444,9.93589743" id="Fill-11"></path>
                    <path d="M22.5008279,9.93589743 C22.5008279,11.3467949 21.3567802,12.4908425 19.9458828,12.4908425 C18.5349854,12.4908425 17.3909377,11.3467949 17.3909377,9.93589743 C17.3909377,8.525 18.5349854,7.38095236 19.9458828,7.38095236 C21.3567802,7.38095236 22.5008279,8.525 22.5008279,9.93589743" id="Fill-13"></path>
                </g>
            </g>
        </g>
    </g>
</svg>