<?xml version="1.0" encoding="UTF-8"?>
<svg width="100px" height="100px" viewBox="0 0 100 100" version="1.1" xmlns="http://www.w3.org/2000/svg" xmlns:xlink="http://www.w3.org/1999/xlink">
    <!-- Generator: Sketch 50.2 (55047) - http://www.bohemiancoding.com/sketch -->
    <title>voicer_icon-circle</title>
    <desc>Created with Sketch.</desc>
    <defs>
        <rect id="path-1" x="0" y="0" width="100" height="100" rx="50"></rect>
        <polygon id="path-3" points="0.1768125 0.4125625 11.6399375 0.4125625 11.6399375 11.875 0.1768125 11.875"></polygon>
        <polygon id="path-5" points="0.5314375 0.4125625 11.9939375 0.4125625 11.9939375 11.875 0.5314375 11.875"></polygon>
        <polygon id="path-7" points="0 0.10525 11.4629375 0.10525 11.4629375 11.56775 0 11.56775"></polygon>
        <polygon id="path-9" points="0.0834375 0.10525 11.54625 0.10525 11.54625 11.56775 0.0834375 11.56775"></polygon>
    </defs>
    <g id="Page-1" stroke="none" stroke-width="1" fill="none" fill-rule="evenodd">
        <g id="voicer_icon-circle">
            <mask id="mask-2" fill="white">
                <use xlink:href="#path-1"></use>
            </mask>
            <use id="Mask" fill="#F9AE0F" xlink:href="#path-1"></use>
            <g id="Group-19" mask="url(#mask-2)">
                <g transform="translate(25.000000, 28.000000)">
                    <path d="M21.0149375,5.731375 C21.0149375,8.896375 18.4493125,11.462625 15.2836875,11.462625 C12.1186875,11.462625 9.5518125,8.896375 9.5518125,5.731375 C9.5518125,2.566375 12.1186875,0.000125 15.2836875,0.000125 C18.4493125,0.000125 21.0149375,2.566375 21.0149375,5.731375" id="Fill-1" fill="#FFFFFF"></path>
                    <path d="M40.1189375,5.731375 C40.1189375,8.896375 37.5533125,11.462625 34.3876875,11.462625 C31.2226875,11.462625 28.6564375,8.896375 28.6564375,5.731375 C28.6564375,2.566375 31.2226875,0.000125 34.3876875,0.000125 C37.5533125,0.000125 40.1189375,2.566375 40.1189375,5.731375" id="Fill-3" fill="#FFFFFF"></path>
                    <g id="Group-7" stroke-width="1" fill="none" transform="translate(9.375000, 32.701875)">
                        <mask id="mask-4" fill="white">
                            <use xlink:href="#path-3"></use>
                        </mask>
                        <g id="Clip-6"></g>
                        <path d="M11.6399375,6.1438125 C11.6399375,9.3088125 9.0743125,11.8750625 5.9086875,11.8750625 C2.7436875,11.8750625 0.1768125,9.3088125 0.1768125,6.1438125 C0.1768125,2.9788125 2.7436875,0.4125625 5.9086875,0.4125625 C9.0743125,0.4125625 11.6399375,2.9788125 11.6399375,6.1438125" id="Fill-5" fill="#FFFFFF" mask="url(#mask-4)"></path>
                    </g>
                    <g id="Group-10" stroke-width="1" fill="none" transform="translate(28.125000, 32.701875)">
                        <mask id="mask-6" fill="white">
                            <use xlink:href="#path-5"></use>
                        </mask>
                        <g id="Clip-9"></g>
                        <path d="M11.9939375,6.1438125 C11.9939375,9.3088125 9.4283125,11.8750625 6.2626875,11.8750625 C3.0976875,11.8750625 0.5314375,9.3088125 0.5314375,6.1438125 C0.5314375,2.9788125 3.0976875,0.4125625 6.2626875,0.4125625 C9.4283125,0.4125625 11.9939375,2.9788125 11.9939375,6.1438125" id="Fill-8" fill="#FFFFFF" mask="url(#mask-6)"></path>
                    </g>
                    <g id="Group-13" stroke-width="1" fill="none" transform="translate(0.000000, 16.451875)">
                        <mask id="mask-8" fill="white">
                            <use xlink:href="#path-7"></use>
                        </mask>
                        <g id="Clip-12"></g>
                        <path d="M11.4629375,5.8365 C11.4629375,9.002125 8.8966875,11.56775 5.7310625,11.56775 C2.5660625,11.56775 -0.0001875,9.002125 -0.0001875,5.8365 C-0.0001875,2.6715 2.5660625,0.10525 5.7310625,0.10525 C8.8966875,0.10525 11.4629375,2.6715 11.4629375,5.8365" id="Fill-11" fill="#FFFFFF" mask="url(#mask-8)"></path>
                    </g>
                    <path d="M30.5669375,22.288375 C30.5669375,25.454 28.0013125,28.019625 24.8356875,28.019625 C21.6706875,28.019625 19.1044375,25.454 19.1044375,22.288375 C19.1044375,19.123375 21.6706875,16.557125 24.8356875,16.557125 C28.0013125,16.557125 30.5669375,19.123375 30.5669375,22.288375" id="Fill-14" fill="#FFFFFF"></path>
                    <g id="Group-18" stroke-width="1" fill="none" transform="translate(38.125000, 16.451875)">
                        <mask id="mask-10" fill="white">
                            <use xlink:href="#path-9"></use>
                        </mask>
                        <g id="Clip-17"></g>
                        <path d="M11.5465625,5.8365 C11.5465625,9.002125 8.9809375,11.56775 5.8153125,11.56775 C2.6496875,11.56775 0.0834375,9.002125 0.0834375,5.8365 C0.0834375,2.6715 2.6496875,0.10525 5.8153125,0.10525 C8.9809375,0.10525 11.5465625,2.6715 11.5465625,5.8365" id="Fill-16" fill="#FFFFFF" mask="url(#mask-10)"></path>
                    </g>
                </g>
            </g>
        </g>
    </g>
</svg>