<?xml version="1.0" encoding="UTF-8"?>
<svg width="32px" height="35px" viewBox="0 0 32 35" version="1.1" xmlns="http://www.w3.org/2000/svg" xmlns:xlink="http://www.w3.org/1999/xlink">
    <!-- Generator: Sketch 50.2 (55047) - http://www.bohemiancoding.com/sketch -->
    <title>widget_menu_outline</title>
    <desc>Created with Sketch.</desc>
    <defs></defs>
    <g id="Page-1" stroke="none" stroke-width="1" fill="none" fill-rule="evenodd">
        <g id="LookrWebsite-Mockup" transform="translate(-594.000000, -4669.000000)" fill="#FFFFFF">
            <g id="Group-29" transform="translate(455.000000, 4652.000000)">
                <g id="widget_menu_outline" transform="translate(139.000000, 17.000000)">
                    <path d="M28.1085217,33.2265121 L30.684599,33.2265121 L30.684599,24.114087 L28.1085217,24.114087 L28.1085217,33.2265121 Z M4.43114976,22.877372 L1.23686957,22.877372 L1.23686957,1.23671498 L30.684599,1.23671498 L30.684599,22.877372 L27.4901643,22.877372 L4.43114976,22.877372 Z M1.23671498,33.2265121 L3.81279227,33.2265121 L3.81279227,24.114087 L1.23671498,24.114087 L1.23671498,33.2265121 Z M30.8187826,0 L1.10268599,0 C0.49468599,0 0,0.49468599 0,1.10268599 L0,33.3606957 C0,33.9686957 0.49468599,34.4632271 1.10268599,34.4632271 L4.43114976,34.4632271 C4.77263768,34.4632271 5.04950725,34.1863575 5.04950725,33.8448696 L5.04950725,24.114087 L26.8718068,24.114087 L26.8718068,33.8448696 C26.8718068,34.1863575 27.1486763,34.4632271 27.4901643,34.4632271 L30.8187826,34.4632271 C31.4267826,34.4632271 31.921314,33.9686957 31.921314,33.3606957 L31.921314,23.4957295 L31.921314,1.10268599 C31.921314,0.49468599 31.4267826,0 30.8187826,0 Z" id="Fill-1"></path>
                    <path d="M0.618357488,23.4956831 L0.618357488,1.10263961 C0.618357488,0.8352 0.835091787,0.6184657 1.10268599,0.6184657 L30.818628,0.6184657 C31.0862222,0.6184657 31.3029565,0.8352 31.3029565,1.10263961 L31.3029565,23.4956831 L0.618357488,23.4956831 Z" id="Fill-3" opacity="0.300000012"></path>
                    <path d="M11.6484019,11.3543729 L17.8392425,17.5450589 L21.7579285,13.6263729 L15.5672425,7.43553237 L11.414199,7.20132947 L11.6484019,11.3543729 Z M17.8392425,19.0379285 C17.680943,19.0379285 17.5227981,18.9776386 17.4020638,18.8567498 L10.6072425,12.0619285 C10.4996483,11.9546435 10.4354937,11.8113391 10.4269913,11.659687 L10.1403826,6.5797256 C10.1306435,6.40395749 10.1960348,6.2322087 10.3206338,6.10776425 C10.4452329,5.98316522 10.6177546,5.91746473 10.7927498,5.92766763 L15.8724019,6.21412174 C16.0242087,6.22262415 16.1673585,6.28677874 16.2747981,6.39421836 L23.0697739,13.1891942 C23.1857159,13.3051362 23.2509527,13.4625082 23.2509527,13.6263729 C23.2509527,13.7903923 23.1857159,13.9476097 23.0697739,14.0635517 L18.2764213,18.8567498 C18.1558415,18.9776386 17.9973874,19.0379285 17.8392425,19.0379285 Z" id="Fill-4"></path>
                    <path d="M14.5667246,10.3540715 C14.968657,9.95229372 14.968657,9.30069952 14.5667246,8.89892174 C14.1649469,8.49714396 13.5136618,8.49714396 13.1117295,8.89876715 C12.7099517,9.30069952 12.7099517,9.95229372 13.1117295,10.3542261 C13.5136618,10.7560039 14.1649469,10.7560039 14.5667246,10.3540715" id="Fill-5"></path>
                </g>
            </g>
        </g>
    </g>
</svg>