<?xml version="1.0" encoding="UTF-8"?>
<svg width="26px" height="33px" viewBox="0 0 26 33" version="1.1" xmlns="http://www.w3.org/2000/svg" xmlns:xlink="http://www.w3.org/1999/xlink">
    <!-- Generator: Sketch 50.2 (55047) - http://www.bohemiancoding.com/sketch -->
    <title>widget_workflow_outline</title>
    <desc>Created with Sketch.</desc>
    <defs>
        <polygon id="path-1" points="0 0.108909091 25.8212262 0.108909091 25.8212262 28.2951455 0 28.2951455"></polygon>
        <polygon id="path-3" points="0.107527273 0.141854545 16.6926182 0.141854545 16.6926182 16.7272727 0.107527273 16.7272727"></polygon>
    </defs>
    <g id="Page-1" stroke="none" stroke-width="1" fill="none" fill-rule="evenodd">
        <g id="LookrWebsite-Mockup" transform="translate(-817.000000, -4671.000000)">
            <g id="Group-29" transform="translate(455.000000, 4652.000000)">
                <g id="widget_workflow_outline" transform="translate(362.000000, 19.000000)">
                    <g id="Group-3" transform="translate(0.000000, 0.072909)">
                        <mask id="mask-2" fill="white">
                            <use xlink:href="#path-1"></use>
                        </mask>
                        <g id="Clip-2"></g>
                        <path d="M10.3272727,2.09587273 L11.7969091,2.89587273 C12.0536364,3.03569091 12.2018182,3.31587273 12.1727273,3.60678182 C12.1436364,3.89787273 11.9434545,4.14314545 11.664,4.22950909 C11.6390909,4.23732727 8.90563636,5.13205455 6.30454545,8.41132727 C3.24163636,12.2727818 2.00036364,17.3078727 1.60690909,21.9280545 C2.03709091,20.8226 2.57763636,19.6204182 3.25254545,18.3889636 C6.65690909,12.1766 11.8838182,8.23841818 18.3678182,7.00005455 C18.5414545,6.96714545 18.7223636,6.99823636 18.8749091,7.0886 L22.2690909,9.09969091 L24.1529091,1.59769091 L10.3272727,2.09587273 Z M0.766363636,28.2951455 C0.753636364,28.2951455 0.740909091,28.2949636 0.728,28.2942364 C0.352727273,28.2746 0.0538181818,27.9724182 0.0390909091,27.5967818 C-0.195636364,21.6331455 0.515818182,13.2909636 5.23836364,7.41550909 C6.92818182,5.31314545 8.65727273,4.11550909 9.82254545,3.47714545 L7.29927273,2.10350909 C7.01163636,1.94678182 6.864,1.61696364 6.93909091,1.29787273 C7.01418182,0.978963636 7.29327273,0.749690909 7.62090909,0.737872727 L25.0678182,0.109327273 C25.2961818,0.101327273 25.5154545,0.200963636 25.6592727,0.3786 C25.8030909,0.556418182 25.8549091,0.791509091 25.7994545,1.01314545 L23.4425455,10.3993273 C23.3865455,10.6220545 23.2287273,10.8051455 23.0169091,10.8935091 C22.8050909,10.9820545 22.564,10.9651455 22.3663636,10.8480545 L18.3723636,8.48169091 C12.3869091,9.70187273 7.738,13.2549636 4.55072727,19.0466 C2.11127273,23.4793273 1.49163636,27.6300545 1.48563636,27.6715091 C1.43381818,28.0309636 1.12563636,28.2951455 0.766363636,28.2951455 Z" id="Fill-1" fill="#FFFFFF" mask="url(#mask-2)"></path>
                    </g>
                    <g id="Group-6" transform="translate(6.727273, 16.072909)">
                        <mask id="mask-4" fill="white">
                            <use xlink:href="#path-3"></use>
                        </mask>
                        <g id="Clip-5"></g>
                        <path d="M8.40007273,1.5964 C4.62952727,1.5964 1.56207273,4.66403636 1.56207273,8.43458182 C1.56207273,12.2051273 4.62952727,15.2727636 8.40007273,15.2727636 C12.1706182,15.2727636 15.2380727,12.2051273 15.2380727,8.43458182 C15.2380727,4.66403636 12.1706182,1.5964 8.40007273,1.5964 M8.40007273,16.7273091 C3.82752727,16.7273091 0.107527273,13.0071273 0.107527273,8.43458182 C0.107527273,3.86185455 3.82752727,0.141854545 8.40007273,0.141854545 C12.9726182,0.141854545 16.6926182,3.86185455 16.6926182,8.43458182 C16.6926182,13.0071273 12.9726182,16.7273091 8.40007273,16.7273091" id="Fill-4" fill="#FFFFFF" mask="url(#mask-4)"></path>
                    </g>
                    <path d="M15.1271818,25.2347455 C15.019,25.2347455 14.9100909,25.2107455 14.8080909,25.1609273 L11.7942727,23.6889273 C11.4335455,23.5125636 11.2837273,23.0771091 11.4600909,22.7162 C11.6364545,22.3554727 12.0713636,22.2056545 12.4328182,22.3818364 L14.9606364,23.6167455 L17.7959091,20.5512909 C18.0686364,20.2563818 18.5288182,20.2385636 18.8235455,20.5112909 C19.1184545,20.7840182 19.1364545,21.2440182 18.8637273,21.5389273 L15.6613636,25.0012909 C15.5202727,25.1538364 15.3253636,25.2347455 15.1271818,25.2347455" id="Fill-7" fill="#FFFFFF"></path>
                </g>
            </g>
        </g>
    </g>
</svg>