<?xml version="1.0" encoding="UTF-8"?>
<svg width="56px" height="29px" viewBox="0 0 56 29" version="1.1" xmlns="http://www.w3.org/2000/svg" xmlns:xlink="http://www.w3.org/1999/xlink">
    <!-- Generator: Sketch 50.2 (55047) - http://www.bohemiancoding.com/sketch -->
    <title>widget_ticketer_outline</title>
    <desc>Created with Sketch.</desc>
    <defs></defs>
    <g id="Page-1" stroke="none" stroke-width="1" fill="none" fill-rule="evenodd">
        <g id="LookrWebsite-Mockup" transform="translate(-472.000000, -4671.000000)" fill="#FFFFFF">
            <g id="Group-29" transform="translate(455.000000, 4652.000000)">
                <g id="widget_ticketer_outline" transform="translate(17.000000, 19.000000)">
                    <path d="M17.1746556,11.6539889 C17.1746556,10.5891636 16.3114063,9.72587778 15.2465444,9.72587778 C14.1818199,9.72587778 13.3185889,10.5891818 13.3185889,11.6539889 C13.3185889,12.718796 14.1818199,13.5821 15.2465444,13.5821 C16.3114063,13.5821 17.1746556,12.7188142 17.1746556,11.6539889 Z M18.4038556,11.6539889 C18.4038556,13.397671 16.9902863,14.8113 15.2465444,14.8113 C13.5029283,14.8113 12.0893889,13.3976411 12.0893889,11.6539889 C12.0893889,9.91033664 13.5029283,8.49667778 15.2465444,8.49667778 C16.9902863,8.49667778 18.4038556,9.91030677 18.4038556,11.6539889 Z" id="Stroke-1" fill-rule="nonzero"></path>
                    <path d="M18.9679,20.4627733 C18.9679,20.8022075 18.6927342,21.0773733 18.3533,21.0773733 L12.1399444,21.0773733 C11.8005102,21.0773733 11.5253444,20.8022075 11.5253444,20.4627733 L11.5253444,17.3032844 C11.5253444,15.255228 13.198488,13.5820844 15.2465444,13.5820844 C17.2947275,13.5820844 18.9679,15.2551991 18.9679,17.3032844 L18.9679,20.4627733 Z M17.7387,17.3032844 C17.7387,15.934077 16.6158686,14.8112844 15.2465444,14.8112844 C13.8773564,14.8112844 12.7545444,15.9340964 12.7545444,17.3032844 L12.7545444,19.8481733 L17.7387,19.8481733 L17.7387,17.3032844 Z" id="Stroke-3" fill-rule="nonzero"></path>
                    <path d="M26.6483622,11.6539889 C26.6483622,10.5891223 25.7852272,9.72587778 24.7204067,9.72587778 C23.6555862,9.72587778 22.7924511,10.5891223 22.7924511,11.6539889 C22.7924511,12.7188555 23.6555862,13.5821 24.7204067,13.5821 C25.7852272,13.5821 26.6483622,12.7188555 26.6483622,11.6539889 Z M27.8775622,11.6539889 C27.8775622,13.3976891 26.4641305,14.8113 24.7204067,14.8113 C22.9766829,14.8113 21.5632511,13.3976891 21.5632511,11.6539889 C21.5632511,9.91028872 22.9766829,8.49667778 24.7204067,8.49667778 C26.4641305,8.49667778 27.8775622,9.91028872 27.8775622,11.6539889 Z" id="Stroke-5" fill-rule="nonzero"></path>
                    <path d="M28.4417467,20.4627733 C28.4417467,20.8022075 28.1665809,21.0773733 27.8271467,21.0773733 L21.6136356,21.0773733 C21.2742013,21.0773733 20.9990356,20.8022075 20.9990356,20.4627733 L20.9990356,17.3032844 C20.9990356,15.2551991 22.672208,13.5820844 24.7203911,13.5820844 C26.7685742,13.5820844 28.4417467,15.2551991 28.4417467,17.3032844 L28.4417467,20.4627733 Z M27.2125467,17.3032844 C27.2125467,15.934077 26.0897153,14.8112844 24.7203911,14.8112844 C23.3510669,14.8112844 22.2282356,15.934077 22.2282356,17.3032844 L22.2282356,19.8481733 L27.2125467,19.8481733 L27.2125467,17.3032844 Z" id="Stroke-7" fill-rule="nonzero"></path>
                    <path d="M36.1222089,11.6539889 C36.1222089,10.5891636 35.2589596,9.72587778 34.1940978,9.72587778 C33.1293733,9.72587778 32.2661422,10.5891818 32.2661422,11.6539889 C32.2661422,12.718796 33.1293733,13.5821 34.1940978,13.5821 C35.2589596,13.5821 36.1222089,12.7188142 36.1222089,11.6539889 Z M37.3514089,11.6539889 C37.3514089,13.397671 35.9378396,14.8113 34.1940978,14.8113 C32.4504816,14.8113 31.0369422,13.3976411 31.0369422,11.6539889 C31.0369422,9.91033664 32.4504816,8.49667778 34.1940978,8.49667778 C35.9378396,8.49667778 37.3514089,9.91030677 37.3514089,11.6539889 Z" id="Stroke-9" fill-rule="nonzero"></path>
                    <path d="M37.9154533,20.4627733 C37.9154533,20.8022075 37.6402875,21.0773733 37.3008533,21.0773733 L31.0874978,21.0773733 C30.7480636,21.0773733 30.4728978,20.8022075 30.4728978,20.4627733 L30.4728978,17.3032844 C30.4728978,15.255228 32.1460413,13.5820844 34.1940978,13.5820844 C36.2422809,13.5820844 37.9154533,15.2551991 37.9154533,17.3032844 L37.9154533,20.4627733 Z M36.6862533,17.3032844 C36.6862533,15.934077 35.563422,14.8112844 34.1940978,14.8112844 C32.8249098,14.8112844 31.7020978,15.9340964 31.7020978,17.3032844 L31.7020978,19.8481733 L36.6862533,19.8481733 L36.6862533,17.3032844 Z" id="Stroke-11" fill-rule="nonzero"></path>
                    <path d="M48.8734867,14.3360933 C48.8734867,17.9282603 51.785608,20.8403378 55.3777311,20.8403378 C55.721375,20.8403378 55.9999533,21.1189162 55.9999533,21.46256 L55.9999533,26.4944711 C55.9999533,27.6936705 55.021375,28.6722489 53.8221756,28.6722489 L2.17773111,28.6722489 C0.978531711,28.6722489 -4.66666666e-05,27.6936705 -4.66666666e-05,26.4944711 L-4.66666666e-05,21.46256 C-4.66666666e-05,21.1189162 0.278531711,20.8403378 0.622175556,20.8403378 C4.21443225,20.8403378 7.12657556,17.9282823 7.12657556,14.3360933 C7.12657556,10.7439044 4.21443225,7.83184889 0.622175556,7.83184889 C0.278531711,7.83184889 -4.66666666e-05,7.55327051 -4.66666666e-05,7.20962667 L-4.66666666e-05,2.17771556 C-4.66666666e-05,0.978516156 0.978531711,-6.22222222e-05 2.17773111,-6.22222222e-05 L53.8221756,-6.22222222e-05 C55.021375,-6.22222222e-05 55.9999533,0.978516156 55.9999533,2.17771556 L55.9999533,7.20962667 C55.9999533,7.55327051 55.721375,7.83184889 55.3777311,7.83184889 C51.785608,7.83184889 48.8734867,10.7439263 48.8734867,14.3360933 Z M47.6290422,14.3360933 C47.6290422,10.266089 50.767033,6.92894255 54.7555089,6.61202464 L54.7555089,2.17771556 C54.7555089,1.66580384 54.3340873,1.24438222 53.8221756,1.24438222 L2.17773111,1.24438222 C1.6658194,1.24438222 1.24439778,1.66580384 1.24439778,2.17771556 L1.24439778,6.61202301 C5.23299598,6.92892993 8.37102,10.2660579 8.37102,14.3360933 C8.37102,18.4061287 5.23299598,21.7432567 1.24439778,22.0601637 L1.24439778,26.4944711 C1.24439778,27.0063828 1.6658194,27.4278044 2.17773111,27.4278044 L53.8221756,27.4278044 C54.3340873,27.4278044 54.7555089,27.0063828 54.7555089,26.4944711 L54.7555089,22.060162 C50.767033,21.7432441 47.6290422,18.4060976 47.6290422,14.3360933 Z" id="Stroke-13" fill-rule="nonzero"></path>
                    <path d="M43.1732156,0.622144444 C43.1732156,0.2785006 43.4517939,-7.77777778e-05 43.7954378,-7.77777778e-05 C44.1390816,-7.77777778e-05 44.41766,0.2785006 44.41766,0.622144444 L44.41766,1.39992222 C44.41766,1.74356607 44.1390816,2.02214444 43.7954378,2.02214444 C43.4517939,2.02214444 43.1732156,1.74356607 43.1732156,1.39992222 L43.1732156,0.622144444 Z" id="Stroke-15" fill-rule="nonzero"></path>
                    <path d="M43.1732156,4.34743556 C43.1732156,4.00379171 43.4517939,3.72521333 43.7954378,3.72521333 C44.1390816,3.72521333 44.41766,4.00379171 44.41766,4.34743556 L44.41766,5.98496896 C44.41766,6.3286128 44.1390816,6.60719118 43.7954378,6.60719118 C43.4517939,6.60719118 43.1732156,6.3286128 43.1732156,5.98496896 L43.1732156,4.34743556 Z M43.1732156,8.93243561 C43.1732156,8.58879177 43.4517939,8.31021339 43.7954378,8.31021339 C44.1390816,8.31021339 44.41766,8.58879177 44.41766,8.93243561 L44.41766,10.569969 C44.41766,10.9136129 44.1390816,11.1921912 43.7954378,11.1921912 C43.4517939,11.1921912 43.1732156,10.9136129 43.1732156,10.569969 L43.1732156,8.93243561 Z M43.1732156,13.5174357 C43.1732156,13.1737918 43.4517939,12.8952135 43.7954378,12.8952135 C44.1390816,12.8952135 44.41766,13.1737918 44.41766,13.5174357 L44.41766,15.1549691 C44.41766,15.4986129 44.1390816,15.7771913 43.7954378,15.7771913 C43.4517939,15.7771913 43.1732156,15.4986129 43.1732156,15.1549691 L43.1732156,13.5174357 Z M43.1732156,18.1024357 C43.1732156,17.7587919 43.4517939,17.4802135 43.7954378,17.4802135 C44.1390816,17.4802135 44.41766,17.7587919 44.41766,18.1024357 L44.41766,19.7399691 C44.41766,20.083613 44.1390816,20.3621914 43.7954378,20.3621914 C43.4517939,20.3621914 43.1732156,20.083613 43.1732156,19.7399691 L43.1732156,18.1024357 Z M43.1732156,22.6874358 C43.1732156,22.3437919 43.4517939,22.0652136 43.7954378,22.0652136 C44.1390816,22.0652136 44.41766,22.3437919 44.41766,22.6874358 L44.41766,24.3249692 C44.41766,24.668613 44.1390816,24.9471914 43.7954378,24.9471914 C43.4517939,24.9471914 43.1732156,24.668613 43.1732156,24.3249692 L43.1732156,22.6874358 Z" id="Stroke-17" fill-rule="nonzero"></path>
                    <path d="M43.1732156,27.27228 C43.1732156,26.9286362 43.4517939,26.6500578 43.7954378,26.6500578 C44.1390816,26.6500578 44.41766,26.9286362 44.41766,27.27228 L44.41766,28.0500578 C44.41766,28.3937016 44.1390816,28.67228 43.7954378,28.67228 C43.4517939,28.67228 43.1732156,28.3937016 43.1732156,28.0500578 L43.1732156,27.27228 Z" id="Stroke-19" fill-rule="nonzero"></path>
                    <path d="M55.3778089,7.20964222 L55.3778089,2.17773111 C55.3778089,1.32217556 54.6778089,0.622175556 53.8222533,0.622175556 L43.7954533,0.622175556 L43.7954533,28.0500422 L53.8222533,28.0500422 C54.6778089,28.0500422 55.3778089,27.3500422 55.3778089,26.4944867 L55.3778089,21.4625756 C51.4419422,21.4625756 48.2513422,18.2719756 48.2513422,14.3361089 C48.2513422,10.4002422 51.4419422,7.20964222 55.3778089,7.20964222" id="Fill-21" opacity="0.299999982"></path>
                </g>
            </g>
        </g>
    </g>
</svg>