<?xml version="1.0" encoding="UTF-8"?>
<svg width="64px" height="24px" viewBox="0 0 64 24" version="1.1" xmlns="http://www.w3.org/2000/svg" xmlns:xlink="http://www.w3.org/1999/xlink">
    <!-- Generator: Sketch 50.2 (55047) - http://www.bohemiancoding.com/sketch -->
    <title>widget_splice_outline</title>
    <desc>Created with Sketch.</desc>
    <defs>
        <path d="M32.6438632,0.669885271 C32.6438632,0.299917852 32.940451,0 33.3122583,0 L62.9452869,0 C63.3144314,0 63.6136821,0.300596799 63.6136821,0.669885271 L63.6136821,22.7667344 C63.6136821,23.1367019 63.3170943,23.4366197 62.9452869,23.4366197 L33.3122583,23.4366197 C32.9431139,23.4366197 32.6438632,23.1360229 32.6438632,22.7667344 L32.6438632,0.669885271 Z M0,0.669885271 C0,0.299917852 0.296587819,0 0.668395166,0 L30.3014237,0 C30.6705682,0 30.9698189,0.300596799 30.9698189,0.669885271 L30.9698189,22.7667344 C30.9698189,23.1367019 30.6732311,23.4366197 30.3014237,23.4366197 L0.668395166,23.4366197 C0.299250709,23.4366197 0,23.1360229 0,22.7667344 L0,0.669885271 Z" id="path-1"></path>
    </defs>
    <g id="Page-1" stroke="none" stroke-width="1" fill="none" fill-rule="evenodd">
        <g id="LookrWebsite-Mockup" transform="translate(-908.000000, -4674.000000)">
            <g id="Group-29" transform="translate(455.000000, 4652.000000)">
                <g id="widget_splice_outline" transform="translate(453.000000, 22.000000)">
                    <path d="M34.3179074,1.67404427 L34.3179074,21.7625755 L61.9396378,21.7625755 L61.9396378,1.67404427 L34.3179074,1.67404427 Z M32.6438632,0.669885271 C32.6438632,0.299917852 32.940451,0 33.3122583,0 L62.9452869,0 C63.3144314,0 63.6136821,0.300596799 63.6136821,0.669885271 L63.6136821,22.7667344 C63.6136821,23.1367019 63.3170943,23.4366197 62.9452869,23.4366197 L33.3122583,23.4366197 C32.9431139,23.4366197 32.6438632,23.1360229 32.6438632,22.7667344 L32.6438632,0.669885271 Z M1.67404427,1.67404427 L1.67404427,21.7625755 L29.2957746,21.7625755 L29.2957746,1.67404427 L1.67404427,1.67404427 Z M0,0.669885271 C0,0.299917852 0.296587819,0 0.668395166,0 L30.3014237,0 C30.6705682,0 30.9698189,0.300596799 30.9698189,0.669885271 L30.9698189,22.7667344 C30.9698189,23.1367019 30.6732311,23.4366197 30.3014237,23.4366197 L0.668395166,23.4366197 C0.299250709,23.4366197 0,23.1360229 0,22.7667344 L0,0.669885271 Z" id="Mask" fill="#FFFFFF" fill-rule="nonzero"></path>
                    <g id="Group-28">
                        <mask id="mask-2" fill="white">
                            <use xlink:href="#path-1"></use>
                        </mask>
                        <g id="Mask-Copy" fill-rule="nonzero"></g>
                        <path d="M52.6173038,18.4406439 L22.8896321,18.4406439 L9.02190754,18.4406439 C7.36762242,18.4406439 6.81999297,17.3625292 7.80508656,16.0239877 L11.6475836,10.8028169 L17.2116281,14.5830184 L23.8481556,7.36579477 L43.9653156,15.1100112 L46.1251509,13.094165 L54.9086519,18.4406439 L52.6173038,18.4406439 Z" id="Combined-Shape" fill-opacity="0.5" fill="#FFFFFF" mask="url(#mask-2)"></path>
                    </g>
                    <path d="M57.2523139,8.0344658 C57.2523139,9.69872771 55.9023494,11.0486922 54.2399809,11.0486922 C52.5738256,11.0486922 51.2257545,9.69872771 51.2257545,8.0344658 C51.2257545,6.37020388 52.5738256,5.0221328 54.2399809,5.0221328 C55.9023494,5.0221328 57.2523139,6.37020388 57.2523139,8.0344658" id="Fill-5" fill-opacity="0.5" fill="#FEFEFE"></path>
                </g>
            </g>
        </g>
    </g>
</svg>